name Walk6.mot
datacolumns 19
datarows 20
range 4.39300000 4.41200000
endheader

                time	   L_ground_force_vx	   L_ground_force_vy	   L_ground_force_vz	   L_ground_force_px	   L_ground_force_py	   L_ground_force_pz	   R_ground_force_vx	   R_ground_force_vy	   R_ground_force_vz	   R_ground_force_px	   R_ground_force_py	   R_ground_force_pz	   L_ground_torque_x	   L_ground_torque_y	   L_ground_torque_z	   R_ground_torque_x	   R_ground_torque_y	   R_ground_torque_z	
          4.39300000	          0.12143586	          0.34764132	          0.00803243	          0.00011116	          0.00000000	          0.00006665	         -3.72283195	        876.93251807	        -73.32639546	          0.16697311	          0.00000000	          0.11715211	          0.00000000	          0.00014852	          0.00000000	          0.00000000	         12.27539226	          0.00000000	
          4.39400000	          0.11928609	          0.34318369	          0.00843883	          0.00005799	          0.00000000	          0.00004418	         -3.40795614	        876.82188033	        -73.13091795	          0.16719238	          0.00000000	          0.11716614	          0.00000000	          0.00016325	          0.00000000	          0.00000000	         12.21155842	          0.00000000	
          4.39500000	          0.11686835	          0.33780824	          0.00877878	          0.00000912	          0.00000000	          0.00002345	         -3.09557925	        876.73204940	        -72.93057589	          0.16741231	          0.00000000	          0.11717987	          0.00000000	          0.00017610	          0.00000000	          0.00000000	         12.14802362	          0.00000000	
          4.39600000	          0.11421456	          0.33161335	          0.00905665	         -0.00003562	          0.00000000	          0.00000439	         -2.78554770	        876.66378012	        -72.72594621	          0.16763288	          0.00000000	          0.11719330	          0.00000000	          0.00018720	          0.00000000	          0.00000000	         12.08479981	          0.00000000	
          4.39700000	          0.11135481	          0.32469207	          0.00927667	         -0.00007643	          0.00000000	         -0.00001306	         -2.47771301	        876.61778137	        -72.51761705	          0.16785408	          0.00000000	          0.11720647	          0.00000000	          0.00019665	          0.00000000	          0.00000000	         12.02189870	          0.00000000	
          4.39800000	          0.10831743	          0.31713234	          0.00944293	         -0.00011348	          0.00000000	         -0.00002898	         -2.17193209	        876.59471340	        -72.30618620	          0.16807590	          0.00000000	          0.11721942	          0.00000000	          0.00020455	          0.00000000	          0.00000000	         11.95933191	          0.00000000	
          4.39900000	          0.10512899	          0.30901700	          0.00955938	         -0.00014695	          0.00000000	         -0.00004344	         -1.86806735	        876.59518578	        -72.09225998	          0.16829835	          0.00000000	          0.11723217	          0.00000000	          0.00021101	          0.00000000	          0.00000000	         11.89711111	          0.00000000	
          4.40000000	          0.10181439	          0.30042395	          0.00962980	         -0.00017702	          0.00000000	         -0.00005650	         -1.56598664	        876.61975601	        -71.87645210	          0.16852142	          0.00000000	          0.11724476	          0.00000000	          0.00021612	          0.00000000	          0.00000000	         11.83524803	          0.00000000	
          4.40100000	          0.09839688	          0.29142629	          0.00965784	         -0.00020386	          0.00000000	         -0.00006824	         -1.26556307	        876.66892833	        -71.65938230	          0.16874513	          0.00000000	          0.11725723	          0.00000000	          0.00021998	          0.00000000	          0.00000000	         11.77375430	          0.00000000	
          4.40200000	          0.09489812	          0.28209242	          0.00964701	         -0.00022766	          0.00000000	         -0.00007872	         -0.96667489	        876.74315210	        -71.44167443	          0.16896950	          0.00000000	          0.11726962	          0.00000000	          0.00022268	          0.00000000	          0.00000000	         11.71264113	          0.00000000	
          4.40300000	          0.09133824	          0.27248619	          0.00960064	         -0.00024856	          0.00000000	         -0.00008801	         -0.66920530	        876.84281971	        -71.22395410	          0.16919455	          0.00000000	          0.11728195	          0.00000000	          0.00022431	          0.00000000	          0.00000000	         11.65191898	          0.00000000	
          4.40400000	          0.08773589	          0.26266706	          0.00952193	         -0.00026675	          0.00000000	         -0.00009618	         -0.37304230	        876.96826406	        -71.00684587	          0.16942029	          0.00000000	          0.11729427	          0.00000000	          0.00022495	          0.00000000	          0.00000000	         11.59159724	          0.00000000	
          4.40500000	          0.08410829	          0.25269023	          0.00941394	         -0.00028239	          0.00000000	         -0.00010330	         -0.07807867	        877.11975657	        -70.79097047	          0.16964676	          0.00000000	          0.11730662	          0.00000000	          0.00022469	          0.00000000	          0.00000000	         11.53168391	          0.00000000	
          4.40600000	          0.08047130	          0.24260682	          0.00927956	         -0.00029563	          0.00000000	         -0.00010942	          0.21578792	        877.29750592	        -70.57694209	          0.16987397	          0.00000000	          0.11731903	          0.00000000	          0.00022360	          0.00000000	          0.00000000	         11.47218545	          0.00000000	
          4.40700000	          0.07683946	          0.23246399	          0.00912153	         -0.00030663	          0.00000000	         -0.00011460	          0.50865465	        877.50165807	        -70.36536602	          0.17010197	          0.00000000	          0.11733153	          0.00000000	          0.00022176	          0.00000000	          0.00000000	         11.41310654	          0.00000000	
          4.40800000	          0.07322606	          0.22230511	          0.00894248	         -0.00031553	          0.00000000	         -0.00011891	          0.80061338	        877.73229756	        -70.15683680	          0.17033077	          0.00000000	          0.11734417	          0.00000000	          0.00021924	          0.00000000	          0.00000000	         11.35445003	          0.00000000	
          4.40900000	          0.06964318	          0.21216995	          0.00874485	         -0.00032248	          0.00000000	         -0.00012240	          1.09175051	        877.98944997	        -69.95193680	          0.17056042	          0.00000000	          0.11735697	          0.00000000	          0.00021610	          0.00000000	          0.00000000	         11.29621689	          0.00000000	
          4.41000000	          0.06610176	          0.20209478	          0.00853099	         -0.00032763	          0.00000000	         -0.00012514	          1.38214695	        878.27308524	        -69.75123518	          0.17079094	          0.00000000	          0.11736999	          0.00000000	          0.00021242	          0.00000000	          0.00000000	         11.23840634	          0.00000000	
          4.41100000	          0.06261167	          0.19211257	          0.00830307	         -0.00033110	          0.00000000	         -0.00012717	          1.67187824	        878.58312113	        -69.55528681	          0.17102238	          0.00000000	          0.11738324	          0.00000000	          0.00020824	          0.00000000	          0.00000000	         11.18101584	          0.00000000	
          4.41200000	          0.05918172	          0.18225314	          0.00806315	         -0.00033302	          0.00000000	         -0.00012855	          1.96101487	        878.91942609	        -69.36463099	          0.17125479	          0.00000000	          0.11739678	          0.00000000	          0.00020364	          0.00000000	          0.00000000	         11.12404136	          0.00000000	
